<?xml version="1.0" encoding="UTF-8" standalone="no"?>
<!DOCTYPE svg PUBLIC "-//W3C//DTD SVG 1.1//EN" "http://www.w3.org/Graphics/SVG/1.1/DTD/svg11.dtd">
<svg xmlns="http://www.w3.org/2000/svg" version="1.1" viewBox="0.00 0.00 500.00 500.00">
<path fill="#0a5351" d="
  M 84.99 242.39
  A 0.95 0.95 0.0 0 1 84.06 243.16
  L 77.06 243.16
  A 0.69 0.69 0.0 0 1 76.38 242.35
  C 79.40 224.11 91.18 208.98 108.12 202.22
  C 121.43 196.91 134.95 197.24 148.09 203.11
  A 0.97 0.96 14.4 0 1 148.66 204.06
  C 147.96 212.42 154.82 216.52 161.94 213.15
  A 1.16 1.15 -36.2 0 1 163.24 213.35
  C 178.42 227.76 182.54 250.56 174.60 269.65
  Q 165.89 290.60 144.12 298.42
  C 132.05 302.75 120.69 302.31 108.67 297.69
  C 91.93 291.26 80.54 277.21 76.98 259.51
  A 0.92 0.92 0.0 0 1 77.88 258.41
  L 84.07 258.41
  A 1.37 1.37 0.0 0 1 85.40 259.45
  Q 87.70 268.58 92.66 275.38
  C 102.86 289.36 121.10 295.95 137.93 291.55
  C 155.12 287.06 167.77 272.57 170.00 254.72
  C 172.19 237.30 162.92 219.99 147.36 212.04
  Q 126.78 201.54 107.06 212.10
  Q 88.99 221.78 84.99 242.39
  Z"
/>
<circle fill="#34aea4" cx="157.19" cy="205.78" r="6.06"/>
<path fill="#34aea4" d="
  M 164.86 248.86
  C 165.26 263.48 157.22 276.67 144.42 283.36
  C 123.23 294.43 97.44 283.07 91.09 259.90
  A 1.06 1.06 0.0 0 1 92.08 258.56
  L 98.71 258.34
  A 1.32 1.31 -4.3 0 1 100.06 259.50
  Q 100.16 260.36 101.58 263.34
  C 106.89 274.47 121.51 281.74 133.57 278.34
  Q 152.64 272.95 156.08 253.52
  Q 156.48 251.27 156.42 249.10
  Q 156.36 246.93 155.84 244.70
  Q 151.33 225.49 131.99 221.16
  C 119.77 218.43 105.57 226.49 100.88 237.90
  Q 99.63 240.95 99.57 241.81
  A 1.32 1.31 1.1 0 1 98.29 243.05
  L 91.66 243.19
  A 1.06 1.06 0.0 0 1 90.59 241.91
  C 95.66 218.42 120.78 205.66 142.55 215.55
  C 155.70 221.52 164.46 234.25 164.86 248.86
  Z"
/>
<path fill="#34aea4" d="
  M 0.00 254.28
  L 0.00 247.95
  L 118.52 248.09
  A 0.63 0.62 8.0 0 0 119.12 247.64
  Q 121.52 239.75 124.37 231.56
  A 1.38 1.32 -68.7 0 1 126.16 230.73
  Q 127.01 231.10 127.35 232.62
  Q 129.41 241.66 132.84 257.67
  A 0.30 0.30 0.0 0 0 133.42 257.71
  L 135.93 250.19
  A 1.49 1.48 -80.7 0 1 137.34 249.17
  L 147.40 249.17
  A 1.14 1.14 0.0 0 1 148.54 250.31
  L 148.54 251.74
  A 1.15 1.15 0.0 0 1 147.39 252.89
  L 139.43 252.89
  A 0.68 0.67 -80.1 0 0 138.80 253.34
  L 133.96 267.86
  A 1.38 1.38 0.0 0 1 131.32 267.77
  Q 128.85 258.44 126.90 246.60
  Q 126.39 243.52 125.32 240.99
  A 0.21 0.21 0.0 0 0 124.93 241.01
  L 121.54 253.39
  A 1.05 1.04 7.6 0 1 120.53 254.16
  L 0.00 254.28
  Z"
/>
<path fill="#34aea4" d="
  M 366.03 245.88
  A 0.38 0.38 0.0 0 0 366.66 245.59
  L 366.66 235.97
  A 0.91 0.91 0.0 0 1 367.57 235.06
  L 372.42 235.06
  A 0.73 0.73 0.0 0 1 373.15 235.79
  L 373.15 266.53
  A 0.53 0.53 0.0 0 1 372.62 267.06
  L 367.81 267.06
  A 0.78 0.78 0.0 0 1 367.03 266.28
  L 367.03 265.53
  A 0.52 0.51 73.1 0 0 366.23 265.10
  Q 359.59 269.63 353.08 265.57
  C 345.88 261.08 346.65 248.50 354.10 244.68
  Q 360.67 241.31 366.03 245.88
  Z
  M 361.3394 248.9308
  A 6.45 5.86 -84.4 0 0 354.8780 254.7782
  A 6.45 5.86 -84.4 0 0 360.0806 261.7692
  A 6.45 5.86 -84.4 0 0 366.5420 255.9218
  A 6.45 5.86 -84.4 0 0 361.3394 248.9308
  Z"
/>
<path fill="#0a5351" d="
  M 210.91 266.81
  L 202.43 255.20
  A 0.48 0.48 0.0 0 0 201.70 255.15
  L 197.47 259.38
  A 0.48 0.48 0.0 0 0 197.33 259.72
  L 197.33 266.41
  A 0.48 0.48 0.0 0 1 196.85 266.89
  L 190.84 266.89
  A 0.48 0.48 0.0 0 1 190.36 266.41
  L 190.36 237.45
  A 0.48 0.48 0.0 0 1 190.84 236.97
  L 196.94 236.97
  A 0.48 0.48 0.0 0 1 197.42 237.45
  L 197.42 249.47
  A 0.48 0.48 0.0 0 0 198.24 249.81
  L 210.98 237.07
  A 0.48 0.48 0.0 0 1 211.32 236.93
  L 218.02 236.93
  A 0.48 0.48 0.0 0 1 218.36 237.75
  L 206.72 249.39
  A 0.48 0.48 0.0 0 0 206.67 250.01
  L 218.53 266.25
  A 0.48 0.48 0.0 0 1 218.14 267.01
  L 211.29 267.01
  A 0.48 0.48 0.0 0 1 210.91 266.81
  Z"
/>
<path fill="#34aea4" d="
  M 318.39 267.15
  L 313.31 267.15
  A 2.28 2.27 -18.1 0 1 311.48 266.23
  L 306.20 259.00
  A 1.30 1.28 71.6 0 0 305.16 258.47
  L 300.28 258.47
  A 0.64 0.64 0.0 0 0 299.64 259.11
  L 299.64 266.28
  A 0.72 0.72 0.0 0 1 298.92 267.00
  L 293.23 267.00
  A 0.75 0.74 -0.0 0 1 292.48 266.26
  L 292.48 237.54
  A 0.43 0.43 0.0 0 1 292.91 237.11
  Q 302.80 237.10 304.69 237.06
  C 310.87 236.94 317.25 239.13 318.51 245.61
  Q 319.96 253.05 313.40 257.04
  A 0.81 0.81 0.0 0 0 313.17 258.21
  L 318.93 266.09
  A 0.67 0.67 0.0 0 1 318.39 267.15
  Z
  M 299.62 243.34
  L 299.76 252.68
  A 0.49 0.49 0.0 0 0 300.26 253.16
  L 305.87 253.08
  A 5.72 4.79 -0.9 0 0 311.52 248.20
  L 311.50 247.46
  A 5.72 4.79 -0.9 0 0 305.71 242.76
  L 300.10 242.85
  A 0.49 0.49 0.0 0 0 299.62 243.34
  Z"
/>
<path fill="#0a5351" d="
  M 257.43 245.50
  A 0.53 0.53 0.0 0 0 258.32 245.88
  Q 261.05 243.26 264.77 243.12
  A 0.67 0.67 0.0 0 1 265.47 243.79
  L 265.47 248.72
  A 0.72 0.72 0.0 0 1 264.75 249.44
  C 260.27 249.43 257.45 250.98 257.53 256.01
  Q 257.62 261.52 257.56 266.24
  A 0.72 0.72 0.0 0 1 256.84 266.95
  L 251.56 266.95
  A 0.71 0.71 0.0 0 1 250.85 266.24
  L 250.85 244.38
  A 0.76 0.75 -90.0 0 1 251.60 243.62
  L 256.62 243.62
  A 0.81 0.81 0.0 0 1 257.43 244.43
  L 257.43 245.50
  Z"
/>
<path fill="#0a5351" d="
  M 268.68 260.46
  A 0.66 0.65 23.7 0 1 269.66 260.08
  C 272.51 261.84 277.33 263.34 280.60 261.76
  A 1.63 1.48 -27.9 0 0 281.38 259.61
  Q 281.01 258.99 279.87 258.73
  C 274.50 257.53 270.58 257.44 268.37 254.20
  A 2.59 2.53 23.8 0 1 267.95 253.15
  C 266.26 242.41 279.21 242.16 286.02 244.72
  A 1.00 1.00 0.0 0 1 286.63 245.92
  L 285.73 249.19
  A 0.90 0.90 0.0 0 1 284.50 249.78
  C 282.43 248.88 275.09 247.21 274.19 250.07
  A 1.75 1.73 15.5 0 0 275.46 252.28
  Q 278.49 253.00 282.48 253.82
  Q 287.18 254.78 287.78 258.85
  Q 288.25 262.04 286.29 264.22
  C 282.15 268.83 273.13 267.70 268.15 265.55
  A 0.98 0.98 0.0 0 1 267.60 264.40
  L 268.68 260.46
  Z"
/>
<path fill="#34aea4" d="
  M 337.46 265.71
  A 0.57 0.56 -22.1 0 0 336.68 265.39
  Q 336.57 265.44 336.14 265.95
  Q 335.78 266.37 335.54 266.46
  Q 329.40 268.61 325.31 266.22
  C 321.76 264.15 320.56 258.85 323.85 255.89
  C 326.89 253.15 331.27 253.76 335.96 253.64
  A 1.41 1.40 -15.7 0 0 337.14 251.54
  L 337.10 251.47
  A 4.81 4.80 76.2 0 0 333.15 249.08
  Q 328.80 248.89 326.09 250.50
  A 1.01 1.01 0.0 0 1 324.62 249.98
  L 323.56 247.08
  A 1.22 1.22 0.0 0 1 324.13 245.59
  C 331.43 241.70 343.65 242.01 343.99 253.04
  Q 344.18 258.84 344.00 266.46
  A 0.62 0.62 0.0 0 1 343.38 267.07
  L 338.73 267.07
  A 0.67 0.54 51.6 0 1 338.47 267.01
  Q 337.78 266.65 337.46 265.71
  Z
  M 335.80 257.23
  L 329.40 257.92
  A 1.12 1.12 0.0 0 0 328.41 259.16
  L 328.45 259.56
  A 4.01 3.84 -6.2 0 0 332.85 262.94
  L 333.51 262.87
  A 4.01 3.84 -6.2 0 0 337.08 258.62
  L 337.04 258.22
  A 1.12 1.12 0.0 0 0 335.80 257.23
  Z"
/>
<path fill="#34aea4" d="
  M 392.47 265.35
  Q 392.36 265.40 391.93 265.91
  Q 391.57 266.33 391.33 266.42
  Q 385.21 268.57 381.12 266.19
  C 377.57 264.13 376.37 258.84 379.65 255.88
  C 382.68 253.14 387.06 253.74 391.74 253.62
  A 1.41 1.40 -15.8 0 0 392.92 251.52
  L 392.88 251.45
  A 4.80 4.79 76.1 0 0 388.93 249.06
  Q 384.58 248.88 381.88 250.49
  A 1.01 1.01 0.0 0 1 380.41 249.97
  L 379.35 247.08
  A 1.22 1.22 0.0 0 1 379.92 245.59
  C 387.20 241.70 399.41 241.99 399.76 253.01
  Q 399.95 258.80 399.78 266.41
  A 0.62 0.62 0.0 0 1 399.16 267.02
  L 394.52 267.02
  A 0.67 0.54 51.5 0 1 394.26 266.96
  Q 393.57 266.61 393.25 265.67
  A 0.57 0.56 -22.2 0 0 392.47 265.35
  Z
  M 392.38 257.57
  Q 388.61 256.91 385.79 258.00
  A 2.50 2.23 64.3 0 0 384.80 261.44
  Q 385.53 262.71 386.88 262.86
  Q 391.69 263.38 393.20 258.95
  A 1.06 1.05 14.3 0 0 392.38 257.57
  Z"
/>
<path fill="#34aea4" d="
  M 412.18 245.54
  A 0.53 0.53 0.0 0 0 413.08 245.92
  Q 415.81 243.29 419.54 243.14
  A 0.67 0.67 0.0 0 1 420.25 243.81
  L 420.25 248.76
  A 0.72 0.72 0.0 0 1 419.53 249.48
  C 415.04 249.48 412.21 251.03 412.29 256.08
  Q 412.39 261.61 412.33 266.34
  A 0.72 0.72 0.0 0 1 411.61 267.05
  L 406.31 267.06
  A 0.71 0.71 0.0 0 1 405.60 266.35
  L 405.58 244.42
  A 0.76 0.75 90.0 0 1 406.33 243.65
  L 411.37 243.65
  A 0.81 0.81 0.0 0 1 412.18 244.46
  L 412.18 245.54
  Z"
/>
<path fill="#0a5351" d="
  M 237.22 265.04
  Q 236.90 265.18 236.11 265.74
  C 233.22 267.81 228.70 267.52 226.12 266.36
  C 222.05 264.53 221.06 260.20 221.11 255.23
  Q 221.15 250.84 221.10 244.56
  A 0.94 0.94 0.0 0 1 222.04 243.61
  L 227.22 243.61
  A 0.83 0.83 0.0 0 1 228.05 244.44
  L 228.05 257.28
  A 4.21 4.21 0.0 0 0 232.93 261.44
  L 233.21 261.40
  A 5.41 5.41 0.0 0 0 237.76 256.06
  L 237.76 244.43
  A 0.81 0.80 -0.0 0 1 238.57 243.63
  L 243.83 243.63
  A 0.88 0.87 90.0 0 1 244.70 244.51
  L 244.70 266.39
  A 0.54 0.53 87.7 0 1 244.21 266.93
  C 242.86 267.02 241.46 266.84 240.09 266.92
  Q 238.29 267.02 237.92 265.40
  A 0.52 0.51 71.9 0 0 237.22 265.04
  Z"
/>
</svg>